<svg id="Layer_1" data-name="Layer 1" xmlns="http://www.w3.org/2000/svg" viewBox="0 0 298.54 77.9"><defs><style>.cls-1{fill:#1d1d1b;}.cls-2{fill:#e12029;}.cls-3{font-size:25px;fill:red;font-family:Osaka-Mono, Osaka;}.cls-4{font-size:23px;font-family:HanziPenSC-W3-GBpc-EUC-H, HanziPen SC;}</style></defs><title>logo</title><polygon class="cls-1" points="31.84 49.43 37.91 49.43 37.91 47.76 23.65 47.76 23.65 49.43 29.72 49.43 29.72 62.62 31.84 62.62 31.84 49.43 31.84 49.43"/><path class="cls-1" d="M54,66.75h2.12V60.68c0-3.48-2.12-5-5-5A5,5,0,0,0,46.58,58V51.89H44.45V66.75h2.13v-5c0-3.34,2.12-4.7,4.24-4.7S54,58.11,54,60.84v5.91Z" transform="translate(-5.33 -4.13)"/><path class="cls-1" d="M60.68,61.9a3.79,3.79,0,0,0,3.94,3.79c1.82,0,3-.61,3.49-2.12h2.27c-.46,2.57-3,3.48-5.61,3.48-3.94,0-6.22-2.12-6.22-5.46,0-3.78,2.43-5.91,6.22-5.91s5.76,2,5.76,5.61v.61Zm4.09-4.85a3.62,3.62,0,0,0-3.94,3.49h7.58a3.37,3.37,0,0,0-3.64-3.49Z" transform="translate(-5.33 -4.13)"/><path class="cls-1" d="M150.59,57.65a6.54,6.54,0,0,1,1.51.16V56a2.45,2.45,0,0,0-1.21-.16,4.55,4.55,0,0,0-4.09,2.43l-.16-2.12h-2c0,.76.16,1.51.16,2.42v8.19h2V61.59c0-2.57,1.21-3.94,3.79-3.94Z" transform="translate(-5.33 -4.13)"/><path class="cls-1" d="M213.51,57.65a7.06,7.06,0,0,1,1.67.16V56a2.88,2.88,0,0,0-1.37-.16,4.73,4.73,0,0,0-4.09,2.43V56.14h-2V66.75h2.12V61.59c0-2.57,1.21-3.94,3.64-3.94Z" transform="translate(-5.33 -4.13)"/><polygon class="cls-1" points="107.65 61.1 104.32 52.01 101.89 52.01 106.14 62.62 109.02 62.62 112.5 53.67 116.29 62.62 119.02 62.62 123.27 52.01 121 52.01 117.66 61.1 114.02 52.01 111.29 52.01 107.65 61.1 107.65 61.1"/><path class="cls-1" d="M85.85,61H81.3v5.76H79.17V51.89h6.37c4.55-.15,6.07,1.82,6.07,4.4,0,2.73-1.82,4.7-5.76,4.7Zm-.31-7.58H81.3v5.91h4.39c2.73,0,3.64-1.06,3.64-3,0-1.67-.91-2.88-3.79-2.88Z" transform="translate(-5.33 -4.13)"/><path class="cls-1" d="M99.34,67.05c-4.25,0-6.52-2-6.52-5.6s2.27-5.77,6.52-5.77c4.55,0,6.67,2.13,6.67,5.77s-2.27,5.6-6.67,5.6Zm0-10a4.32,4.32,0,1,0,0,8.64c3,0,4.55-2,4.55-4.24,0-2.58-1.52-4.4-4.55-4.4Z" transform="translate(-5.33 -4.13)"/><path class="cls-1" d="M131.79,61.9c.3,2.12,1.51,3.79,3.94,3.79,1.82,0,3.18-.61,3.64-2.12h2.12c-.45,2.57-3,3.48-5.61,3.48-3.94,0-6.07-2.12-6.07-5.46,0-3.78,2.28-5.91,6.07-5.91s5.91,2,5.91,5.61v.61Zm4.09-4.85a3.62,3.62,0,0,0-3.94,3.49h7.58a3.37,3.37,0,0,0-3.64-3.49Z" transform="translate(-5.33 -4.13)"/><path class="cls-1" d="M218.36,61.9a3.79,3.79,0,0,0,3.94,3.79c1.82,0,3-.61,3.49-2.12h2.28c-.46,2.57-3,3.48-5.77,3.48-3.79,0-6.06-2.12-6.06-5.46,0-3.78,2.42-5.91,6.22-5.91s5.76,2,5.76,5.61v.61Zm4.1-4.85c-2.13,0-3.8,1.06-4,3.49h7.58a3.37,3.37,0,0,0-3.63-3.49Z" transform="translate(-5.33 -4.13)"/><path class="cls-1" d="M179.39,53a21.81,21.81,0,0,1,2.28.31V51.74a14.93,14.93,0,0,0-2.73-.15c-3,0-3.94,1.51-3.94,4.09v.46h-2.73V57.5H175v9.25h2V57.5h4.4V56.14H177v-.91c0-1.67.76-2.28,2.42-2.28Z" transform="translate(-5.33 -4.13)"/><path class="cls-1" d="M164.69,67.05c-4.4,0-6.67-2-6.67-5.6s2.42-5.77,6.67-5.77,6.67,2.13,6.67,5.77-2.43,5.6-6.67,5.6Zm0-10a4.32,4.32,0,1,0,4.39,4.4c0-2.58-1.36-4.4-4.39-4.4Z" transform="translate(-5.33 -4.13)"/><path class="cls-1" d="M255.36,58.26a4.06,4.06,0,0,0-3.79-2.58A4.58,4.58,0,0,0,247.62,58l-.15-1.82h-2c0,.76.15,1.51.15,2.42v8.19h2V61.59c0-3.18,1.83-4.54,3.49-4.54s2.58,1.21,2.58,4.24v5.46h2.12V61.59c0-3.78,2.28-4.54,3.34-4.54,2.12,0,2.73,1.51,2.73,4.24v5.46h2V60.54c0-3.49-1.82-4.86-4.4-4.86a4.63,4.63,0,0,0-4.09,2.58Z" transform="translate(-5.33 -4.13)"/><path class="cls-1" d="M271.88,67.05c3.95,0,5.92-1.06,5.92-3.33,0-1.67-1.06-2.43-3-2.73l-3.48-.76c-1.52-.3-2.28-.6-2.28-1.51,0-1.07,1.22-1.67,3.19-1.67,1.51,0,2.88.45,3,1.82h2.12c0-2.58-2.88-3.19-5.15-3.19-2.73,0-5.16.91-5.16,3.34,0,1.66,1.22,2.43,2.88,2.73l3.34.6c1.06.31,2.27.61,2.27,1.52,0,1.21-1.21,1.82-3.48,1.82-1.82,0-3.19-.61-3.49-2h-2.12c.15,2.42,2.42,3.33,5.45,3.33Z" transform="translate(-5.33 -4.13)"/><path class="cls-1" d="M196.38,66.75H190V51.89h6.37c5.76,0,8.34,2.58,8.34,7.43,0,4.7-3,7.43-8.34,7.43Zm-.61-13.34h-3.49V65.08h3.79c5.16,0,6.37-2.73,6.37-5.76,0-3.94-1.36-5.91-6.67-5.91Z" transform="translate(-5.33 -4.13)"/><path class="cls-1" d="M240,66.75h2V59.47c0-2.57-2.12-3.79-5.15-3.79-2.27,0-5,.61-5.31,3.19h2.28c.15-1.06,1.21-1.82,3-1.82s3,.76,3,2.58v.45h-1.21c-2.43,0-7.89-.15-7.89,3.49,0,2.12,1.82,3.48,4.55,3.48,2.13,0,3.49-.15,4.55-1.82l.15,1.52Zm-.15-4.7c0,2.58-1.36,3.64-3.94,3.64-2.12,0-2.88-.91-2.88-2.12,0-2.28,4.24-2.12,5.76-2.12h1.06v.6Z" transform="translate(-5.33 -4.13)"/><path class="cls-2" d="M239.89,39.15V34.61l4.7-.46a4.19,4.19,0,0,0,2.43-2l11.37-18.65a1.79,1.79,0,0,0-1.21-2.88L251.26,10V5.34h25.93a3.68,3.68,0,0,1,3,2l15.17,23.19c1.21,1.82,2.12,3.34,3.63,3.49l4.86.46v4.69H274.61V34.61l3.64-.46c1.82-.15,3.34-1.06,1.82-3.18l-1.36-2.12H257.94l-1.67,2.57c-.91,1.52,0,2.58,1.51,2.73l3.79.46v4.54Zm21.68-16.37h13.19l-6.67-10.31-6.52,10.31Z" transform="translate(-5.33 -4.13)"/><path class="cls-2" d="M220.48,5.34H187.13V10l4.09.31a2.56,2.56,0,0,1,2.28,2.88V31.42c0,1.37-.61,2.58-2,2.73l-4.39.61v4.39h33.35c15.47,0,22.14-7.42,22.14-17.43,0-8.79-6.67-16.38-22.14-16.38Zm-5.15,27.3h-8.64V11.86h8.64c8.34,0,11.67,1.82,11.67,10.47,0,8.49-3.33,10.31-11.67,10.31Z" transform="translate(-5.33 -4.13)"/><path class="cls-2" d="M5.33,39.15H32.47V34.61l-4.7-.46c-1.06-.15-2.12-.76-2.12-3V25.66H46.58v5.16c0,1.51-.31,3-2.13,3.18l-4.7.46v4.69H66.89V34.46L62,34a2.47,2.47,0,0,1-2-2.73V13.68c0-1.82.61-3,2.12-3.18l4.7-.46V5.34H39.75V9.89l4.7.61c1.67.15,2.13,1.52,2.13,3.18v5.16H25.65V13.53c0-2,.91-2.88,2.28-3L32.47,10V5.34h-27V10L10,10.5c1.67.15,2.28,1.52,2.13,3.18V30.82c0,2-.46,3.18-2.28,3.33l-4.55.46v4.54Z" transform="translate(-5.33 -4.13)"/><path class="cls-2" d="M68.11,22.17c0-10.61,8.64-18,27.74-18s27.6,7.43,27.6,18c0,10.77-8.64,18.2-27.6,18.2s-27.74-7.43-27.74-18.2ZM95.85,10.5c-7.73,0-12.13,2.88-12.13,11.67,0,9,4.4,11.83,12.13,11.83s12-2.88,12-11.83c0-8.79-4.4-11.67-12-11.67Z" transform="translate(-5.33 -4.13)"/><path class="cls-2" d="M125,39.15h21.53V34.61l-4.55-.46c-1.36-.15-2.12-1.21-2.12-2.88V14.14l17.89,23.65a3.52,3.52,0,0,0,2.88,1.36h17V13.53c0-1.21.3-2.88,2-3l4.7-.46V5.34H162.72V9.89l4.7.61c1.66.15,2,1.67,2,3.18V30.36L151.65,6.86a3.67,3.67,0,0,0-2.88-1.52H125V10l4.4.46c1.67.3,2.28,1.06,2.28,3.18V30.82c0,2.12-.61,3-2.28,3.33l-4.4.46v4.54Z" transform="translate(-5.33 -4.13)"/><text class="cls-3" transform="translate(173.45 73.11)">^</text><text class="cls-4" transform="translate(166.93 44.3) rotate(-5.18)">Sush’s</text></svg>